<svg width="512" height="200" xmlns="http://www.w3.org/2000/svg" xmlns:xlink="http://www.w3.org/1999/xlink" overflow="hidden"><defs><clipPath id="clip0"><rect x="369" y="124" width="512" height="200"/></clipPath></defs><g clip-path="url(#clip0)" transform="translate(-369 -124)"><path d="M837.909 175.385C837.438 173.889 836.051 172.873 834.483 172.873L800.964 172.873C799.396 172.873 798.01 173.889 797.539 175.385L755.25 309.514C754.905 310.605 755.102 311.796 755.778 312.719 756.454 313.643 757.53 314.187 758.675 314.187L781.751 314.187C783.343 314.187 784.745 313.14 785.196 311.612L814.318 212.965C814.318 212.965 815.08 210.501 817.717 210.501 820.398 210.501 821.052 213.062 821.052 213.064L834.563 259.844 816 259.844C814.391 259.844 812.978 260.914 812.543 262.462L807.334 280.981C807.029 282.064 807.249 283.226 807.929 284.121 808.608 285.019 809.667 285.545 810.792 285.545L842.118 285.545 850.256 311.662C850.724 313.164 852.114 314.187 853.686 314.187L876.773 314.187C877.918 314.187 878.993 313.643 879.669 312.719 880.347 311.796 880.543 310.605 880.198 309.514L837.909 175.385" fill="#264970"/><path d="M680.281 198.988 708.214 198.988C722.66 198.988 725.56 204.673 725.56 213.845L725.56 227.544C725.56 238.961 721.184 242.812 708.214 242.812L680.281 242.812 680.281 198.988 680.281 198.988ZM765.57 308.257 734.876 263.981C748.092 258.499 754.79 247.009 754.79 229.827L754.79 211.77C754.79 184.868 740.745 172.873 709.251 172.873L654.644 172.873C652.661 172.873 651.052 174.48 651.052 176.463L651.052 310.594C651.052 312.579 652.661 314.187 654.644 314.187L676.689 314.187C678.672 314.187 680.281 312.579 680.281 310.594L680.281 268.528 702.842 268.528 733.526 312.645C734.197 313.61 735.299 314.187 736.475 314.187L762.819 314.187 762.842 314.187C764.826 314.187 766.434 312.579 766.434 310.594 766.434 309.701 766.109 308.884 765.57 308.257L765.57 308.257Z" fill="#264970"/><path d="M624.268 172.873 602.222 172.873C600.239 172.873 598.63 174.48 598.63 176.463L598.63 310.594C598.63 312.579 600.239 314.187 602.222 314.187L624.268 314.187C626.252 314.187 627.861 312.579 627.861 310.594L627.861 176.463C627.861 174.48 626.252 172.873 624.268 172.873" fill="#264970"/><path d="M572.639 172.873 550.326 172.873C548.436 172.873 546.896 174.405 546.896 176.294L546.896 281.25C546.896 294.44 536.845 298.776 530.043 299.122 529.126 299.167 528.059 299.745 527.473 300.601 526.884 301.461 526.72 302.54 527.026 303.534L532.451 321.182C532.894 322.626 534.45 323.555 536.983 323.555 558.333 323.555 576.06 306.792 576.06 284.323L576.06 176.295C576.06 175.387 575.701 174.516 575.058 173.874 574.417 173.232 573.547 172.873 572.639 172.873" fill="#264970"/><path d="M399.847 136.281C392.991 136.281 387.44 141.825 387.44 148.698 387.44 155.554 392.991 161.117 399.847 161.117 406.708 161.117 412.253 155.554 412.253 148.698 412.253 141.825 406.708 136.281 399.847 136.281" fill="#264970"/><path d="M481.356 136.281C474.497 136.281 468.953 141.825 468.953 148.698 468.953 155.554 474.497 161.117 481.356 161.117 488.196 161.117 493.76 155.554 493.76 148.698 493.76 141.825 488.196 136.29 481.356 136.281" fill="#264970"/><path d="M440.601 124.951C433.746 124.951 428.195 130.494 428.195 137.369 428.195 144.225 433.746 149.789 440.601 149.789 447.461 149.789 453.006 144.225 453.006 137.369 453.006 130.494 447.461 124.951 440.601 124.951" fill="#264970"/><path d="M510.686 170.882C509.995 170.357 509.166 170.085 508.324 170.085 507.857 170.085 507.385 170.17 506.938 170.342 498.537 173.555 490.006 175.994 482.22 177.808 480.632 178.178 479.349 179.358 478.818 180.774 473.145 196.313 458.659 211.11 443.461 226.608 442.851 227.187 441.997 227.951 440.606 227.951 439.218 227.951 438.372 227.211 437.751 226.608 422.555 211.11 408.069 196.364 402.394 180.824 401.862 179.409 400.579 178.23 398.994 177.858 391.203 176.044 382.651 173.529 374.26 170.317 373.811 170.146 373.339 170.061 372.87 170.061 372.029 170.061 371.214 170.325 370.526 170.851 369.449 171.672 368.891 173.004 369.018 174.283 370.305 187.205 375.411 199.838 384.626 213.075 393.288 225.521 404.586 237.041 415.509 248.181 435.635 268.71 454.648 288.099 456.316 310.582 456.466 312.61 458.156 314.182 460.194 314.182L483.84 314.182C484.905 314.182 485.922 313.744 486.657 312.972 487.389 312.202 487.777 311.166 487.724 310.101 486.98 295.07 481.323 280.016 470.43 264.086 468.147 260.746 465.702 257.496 463.145 254.316 462.106 253.021 462.541 251.412 463.336 250.6 464.121 249.796 464.91 248.994 465.704 248.181 476.628 237.04 487.924 225.521 496.588 213.075 505.802 199.836 510.906 187.278 512.193 174.358 512.322 173.06 511.733 171.682 510.686 170.882" fill="#264970"/><path d="M415.232 265.67C414.673 265.085 413.851 264.488 412.471 264.488 410.706 264.488 409.659 265.708 409.263 266.312 399.317 281.447 394.18 295.732 393.47 310.087 393.419 311.146 393.809 312.197 394.541 312.97 395.276 313.739 396.307 314.182 397.37 314.182L420.975 314.182C423.006 314.182 424.717 312.593 424.866 310.568 425.38 303.649 427.534 296.714 431.456 289.426 432.815 286.905 431.759 284.536 430.977 283.524 427.086 278.464 422.321 273.067 415.232 265.67" fill="#264970"/><path d="M440.628 182.466C448.038 182.466 452.336 182.021 453.846 182.021 455.675 182.021 457.423 183.52 457.423 185.618 457.423 186.23 457.278 186.668 457.135 187.055 456.152 189.682 451.673 199.135 443.333 207.244 442.398 208.154 441.338 208.324 440.608 208.324L440.599 208.324C439.87 208.324 438.811 208.154 437.876 207.244 429.537 199.135 425.057 189.682 424.076 187.055 423.931 186.668 423.786 186.23 423.786 185.618 423.786 183.52 425.537 182.021 427.366 182.021 428.875 182.021 433.171 182.466 440.579 182.466L440.628 182.466" fill="#264970"/></g></svg>