<?xml version="1.0" standalone="no"?>
<!DOCTYPE svg PUBLIC "-//W3C//DTD SVG 20010904//EN"
 "http://www.w3.org/TR/2001/REC-SVG-20010904/DTD/svg10.dtd">
<svg version="1.0" xmlns="http://www.w3.org/2000/svg"
 width="670.000000pt" height="672.000000pt" viewBox="0 0 670.000000 672.000000"
 preserveAspectRatio="xMidYMid meet">

<g transform="translate(0.000000,672.000000) scale(0.100000,-0.100000)"
fill="#000000" stroke="none">
<path d="M3771 6028 c-67 -9 -126 -34 -152 -64 -49 -56 -84 -176 -115 -396
-47 -337 -110 -582 -193 -746 -116 -229 -391 -460 -673 -566 -71 -26 -78 -25
-93 23 -13 42 -73 137 -121 191 -95 104 -221 178 -355 206 -61 13 -154 15
-584 12 -505 -3 -511 -3 -575 -26 -116 -42 -182 -83 -266 -167 -86 -85 -136
-164 -176 -275 l-23 -65 0 -1460 0 -1460 27 -73 c42 -114 85 -180 172 -268 97
-96 206 -155 330 -179 112 -22 988 -22 1091 0 85 18 213 79 279 135 61 51 139
146 171 211 l25 48 62 -35 c213 -121 547 -246 849 -318 252 -60 512 -93 811
-103 294 -9 453 20 659 122 347 171 678 555 956 1108 128 255 235 586 294 907
19 104 23 161 23 335 1 189 -1 218 -22 295 -91 337 -363 600 -732 710 -188 56
-325 71 -702 77 -186 3 -338 8 -338 10 0 2 16 52 36 111 53 158 102 366 125
526 25 171 22 451 -6 576 -71 318 -309 560 -588 599 -88 12 -106 12 -196 -1z
m238 -348 c99 -50 174 -148 217 -285 80 -252 13 -714 -172 -1176 -75 -191 -71
-252 22 -310 l39 -24 520 -6 c324 -4 539 -11 570 -18 121 -27 206 -56 295 -99
80 -39 109 -60 186 -137 152 -151 196 -258 196 -480 0 -391 -160 -919 -403
-1327 -316 -531 -631 -802 -987 -849 -161 -21 -619 22 -912 87 -324 71 -627
183 -875 324 l-80 45 -3 1245 -2 1245 67 23 c400 139 735 410 909 738 91 172
156 420 224 854 33 215 24 193 82 186 28 -4 76 -20 107 -36z m-1958 -1333 c72
-30 131 -78 169 -138 61 -94 60 -55 60 -1504 0 -857 -4 -1342 -10 -1383 -6
-35 -20 -84 -32 -108 -28 -61 -101 -132 -168 -163 l-55 -26 -500 0 -500 0 -61
32 c-72 38 -127 95 -163 172 l-26 56 0 1410 0 1410 28 60 c44 94 126 165 227
196 14 4 239 8 500 8 473 1 475 0 531 -22z"/>
<path d="M1500 2089 c-128 -50 -223 -147 -270 -276 -19 -53 -22 -77 -18 -155
3 -78 9 -103 35 -158 40 -81 88 -138 155 -183 178 -117 401 -92 550 60 61 63
103 144 119 232 32 181 -73 378 -247 462 -62 30 -79 33 -169 36 -83 3 -109 -1
-155 -18z m203 -329 c80 -63 36 -190 -65 -190 -52 0 -108 51 -108 99 0 38 23
86 47 100 31 18 98 13 126 -9z"/>
</g>
</svg>
