<?xml version="1.0" encoding="UTF-8"?>
<svg xmlns="http://www.w3.org/2000/svg" xmlns:xlink="http://www.w3.org/1999/xlink" width="30px" height="30px" viewBox="0 0 30 30" version="1.1">
<g id="surface1">
<path style=" stroke:none;fill-rule:nonzero;fill:rgb(0%,0%,0%);fill-opacity:1;" d="M 16.875 3.089844 C 16.574219 3.128906 16.3125 3.242188 16.195312 3.375 C 15.976562 3.625 15.820312 4.160156 15.679688 5.144531 C 15.46875 6.648438 15.1875 7.742188 14.816406 8.472656 C 14.296875 9.496094 13.066406 10.527344 11.804688 11 C 11.488281 11.117188 11.457031 11.113281 11.390625 10.898438 C 11.332031 10.710938 11.0625 10.285156 10.847656 10.042969 C 10.421875 9.582031 9.859375 9.25 9.257812 9.125 C 8.984375 9.066406 8.570312 9.058594 6.644531 9.070312 C 4.386719 9.085938 4.359375 9.085938 4.070312 9.1875 C 3.554688 9.375 3.257812 9.558594 2.882812 9.933594 C 2.496094 10.3125 2.273438 10.664062 2.09375 11.160156 L 1.992188 11.449219 L 1.992188 24.488281 L 2.113281 24.8125 C 2.300781 25.320312 2.492188 25.617188 2.882812 26.007812 C 3.316406 26.4375 3.804688 26.699219 4.359375 26.808594 C 4.859375 26.90625 8.78125 26.90625 9.242188 26.808594 C 9.621094 26.726562 10.195312 26.457031 10.488281 26.207031 C 10.761719 25.976562 11.109375 25.554688 11.253906 25.261719 L 11.367188 25.050781 L 11.644531 25.207031 C 12.597656 25.746094 14.089844 26.304688 15.441406 26.625 C 16.570312 26.894531 17.734375 27.039062 19.070312 27.085938 C 20.386719 27.125 21.097656 26.996094 22.019531 26.539062 C 23.574219 25.777344 25.054688 24.0625 26.300781 21.59375 C 26.871094 20.457031 27.351562 18.976562 27.613281 17.542969 C 27.699219 17.082031 27.71875 16.824219 27.71875 16.050781 C 27.722656 15.207031 27.714844 15.074219 27.621094 14.730469 C 27.210938 13.226562 25.996094 12.054688 24.34375 11.5625 C 23.503906 11.3125 22.890625 11.246094 21.203125 11.21875 C 20.371094 11.207031 19.691406 11.183594 19.691406 11.175781 C 19.691406 11.164062 19.761719 10.941406 19.851562 10.679688 C 20.089844 9.972656 20.308594 9.042969 20.410156 8.332031 C 20.523438 7.566406 20.507812 6.316406 20.382812 5.757812 C 20.066406 4.339844 19 3.257812 17.753906 3.085938 C 17.359375 3.03125 17.277344 3.03125 16.875 3.089844 Z M 17.941406 4.644531 C 18.382812 4.867188 18.71875 5.304688 18.910156 5.914062 C 19.269531 7.039062 18.96875 9.101562 18.140625 11.164062 C 17.804688 12.019531 17.824219 12.289062 18.238281 12.550781 L 18.414062 12.65625 L 20.742188 12.683594 C 22.191406 12.699219 23.152344 12.730469 23.292969 12.761719 C 23.832031 12.882812 24.214844 13.011719 24.613281 13.207031 C 24.96875 13.378906 25.101562 13.472656 25.445312 13.816406 C 26.125 14.492188 26.320312 14.96875 26.320312 15.960938 C 26.320312 17.707031 25.605469 20.0625 24.519531 21.882812 C 23.105469 24.253906 21.695312 25.464844 20.101562 25.675781 C 19.382812 25.769531 17.332031 25.574219 16.019531 25.285156 C 14.570312 24.96875 13.214844 24.46875 12.105469 23.839844 L 11.746094 23.636719 L 11.734375 18.082031 L 11.722656 12.523438 L 12.023438 12.417969 C 13.8125 11.800781 15.3125 10.589844 16.09375 9.125 C 16.5 8.355469 16.789062 7.25 17.09375 5.3125 C 17.242188 4.351562 17.203125 4.449219 17.460938 4.480469 C 17.585938 4.5 17.800781 4.570312 17.941406 4.644531 Z M 9.179688 10.59375 C 9.5 10.726562 9.765625 10.941406 9.933594 11.210938 C 10.207031 11.628906 10.203125 11.457031 10.203125 17.925781 C 10.203125 21.75 10.183594 23.914062 10.15625 24.097656 C 10.132812 24.253906 10.070312 24.472656 10.015625 24.582031 C 9.890625 24.851562 9.5625 25.167969 9.261719 25.308594 L 9.015625 25.425781 L 4.542969 25.425781 L 4.269531 25.28125 C 3.945312 25.113281 3.699219 24.855469 3.539062 24.511719 L 3.421875 24.261719 L 3.421875 11.675781 L 3.546875 11.40625 C 3.746094 10.988281 4.113281 10.667969 4.5625 10.53125 C 4.628906 10.511719 5.632812 10.496094 6.800781 10.496094 C 8.917969 10.492188 8.925781 10.496094 9.179688 10.59375 Z M 9.179688 10.59375 "/>
<path style=" stroke:none;fill-rule:nonzero;fill:rgb(0%,0%,0%);fill-opacity:1;" d="M 6.710938 20.675781 C 6.140625 20.898438 5.714844 21.332031 5.503906 21.90625 C 5.417969 22.144531 5.40625 22.25 5.421875 22.597656 C 5.4375 22.945312 5.464844 23.058594 5.582031 23.304688 C 5.757812 23.664062 5.972656 23.917969 6.273438 24.121094 C 7.070312 24.644531 8.066406 24.53125 8.734375 23.851562 C 9.007812 23.570312 9.195312 23.210938 9.269531 22.816406 C 9.410156 22.007812 8.941406 21.128906 8.164062 20.753906 C 7.886719 20.621094 7.808594 20.605469 7.40625 20.59375 C 7.035156 20.582031 6.917969 20.597656 6.710938 20.675781 Z M 7.621094 22.144531 C 7.980469 22.425781 7.78125 22.992188 7.328125 22.992188 C 7.097656 22.992188 6.847656 22.761719 6.847656 22.550781 C 6.847656 22.378906 6.949219 22.164062 7.058594 22.101562 C 7.195312 22.023438 7.496094 22.042969 7.621094 22.144531 Z M 7.621094 22.144531 "/>
</g>
</svg>
