<?xml version="1.0" encoding="UTF-8"?>
<svg xmlns="http://www.w3.org/2000/svg" xmlns:xlink="http://www.w3.org/1999/xlink" width="20px" height="20px" viewBox="0 0 20 20" version="1.1">
<g id="surface1">
<path style=" stroke:none;fill-rule:nonzero;fill:rgb(0%,0%,0%);fill-opacity:1;" d="M 11.25 2.058594 C 11.050781 2.089844 10.875 2.160156 10.796875 2.25 C 10.652344 2.417969 10.546875 2.777344 10.453125 3.433594 C 10.3125 4.433594 10.125 5.160156 9.878906 5.652344 C 9.53125 6.332031 8.714844 7.019531 7.871094 7.332031 C 7.660156 7.410156 7.636719 7.410156 7.59375 7.265625 C 7.558594 7.140625 7.375 6.855469 7.230469 6.691406 C 6.949219 6.386719 6.574219 6.167969 6.171875 6.082031 C 5.988281 6.042969 5.714844 6.035156 4.433594 6.046875 C 2.925781 6.058594 2.90625 6.058594 2.714844 6.125 C 2.371094 6.25 2.171875 6.371094 1.921875 6.621094 C 1.660156 6.875 1.515625 7.109375 1.394531 7.441406 L 1.328125 7.628906 L 1.328125 16.324219 L 1.410156 16.542969 C 1.535156 16.878906 1.660156 17.078125 1.921875 17.339844 C 2.214844 17.625 2.535156 17.800781 2.90625 17.871094 C 3.238281 17.9375 5.855469 17.9375 6.160156 17.871094 C 6.410156 17.816406 6.796875 17.636719 6.996094 17.472656 C 7.175781 17.316406 7.40625 17.035156 7.503906 16.839844 L 7.578125 16.699219 L 7.761719 16.808594 C 8.402344 17.160156 9.394531 17.535156 10.292969 17.75 C 11.046875 17.933594 11.824219 18.027344 12.714844 18.058594 C 13.589844 18.082031 14.066406 17.996094 14.683594 17.691406 C 15.714844 17.183594 16.703125 16.042969 17.535156 14.394531 C 17.910156 13.636719 18.234375 12.652344 18.410156 11.691406 C 18.464844 11.386719 18.480469 11.214844 18.480469 10.699219 C 18.480469 10.136719 18.472656 10.050781 18.410156 9.816406 C 18.140625 8.816406 17.332031 8.035156 16.230469 7.707031 C 15.667969 7.542969 15.261719 7.496094 14.136719 7.480469 C 13.582031 7.472656 13.128906 7.457031 13.128906 7.449219 C 13.128906 7.441406 13.175781 7.292969 13.234375 7.121094 C 13.394531 6.652344 13.535156 6.027344 13.605469 5.558594 C 13.683594 5.042969 13.671875 4.214844 13.589844 3.839844 C 13.378906 2.894531 12.667969 2.171875 11.839844 2.058594 C 11.574219 2.019531 11.519531 2.019531 11.25 2.058594 Z M 11.964844 3.097656 C 12.253906 3.246094 12.480469 3.535156 12.605469 3.941406 C 12.847656 4.691406 12.644531 6.066406 12.09375 7.441406 C 11.871094 8.011719 11.878906 8.191406 12.160156 8.371094 L 12.277344 8.4375 L 13.828125 8.457031 C 14.792969 8.464844 15.433594 8.488281 15.527344 8.503906 C 15.886719 8.589844 16.144531 8.675781 16.410156 8.808594 C 16.644531 8.917969 16.734375 8.980469 16.964844 9.214844 C 17.417969 9.660156 17.546875 9.980469 17.546875 10.640625 C 17.546875 11.808594 17.066406 13.375 16.347656 14.589844 C 15.402344 16.167969 14.464844 16.972656 13.402344 17.121094 C 12.921875 17.183594 11.558594 17.050781 10.683594 16.855469 C 9.714844 16.644531 8.808594 16.3125 8.066406 15.894531 L 7.832031 15.753906 L 7.824219 12.058594 L 7.816406 8.347656 L 8.015625 8.277344 C 9.207031 7.871094 10.207031 7.058594 10.730469 6.082031 C 11 5.566406 11.191406 4.832031 11.394531 3.542969 C 11.496094 2.902344 11.46875 2.964844 11.640625 2.988281 C 11.722656 3 11.871094 3.046875 11.964844 3.097656 Z M 6.121094 7.0625 C 6.332031 7.152344 6.511719 7.292969 6.621094 7.472656 C 6.808594 7.753906 6.800781 7.636719 6.800781 11.949219 C 6.800781 14.5 6.785156 15.941406 6.769531 16.066406 C 6.753906 16.167969 6.714844 16.316406 6.675781 16.386719 C 6.59375 16.566406 6.375 16.777344 6.175781 16.871094 L 6.011719 16.949219 L 3.027344 16.949219 L 2.847656 16.855469 C 2.628906 16.746094 2.464844 16.566406 2.359375 16.339844 L 2.28125 16.175781 L 2.28125 7.785156 L 2.363281 7.605469 C 2.496094 7.324219 2.746094 7.113281 3.042969 7.019531 C 3.089844 7.003906 3.753906 6.996094 4.535156 6.996094 C 5.941406 6.996094 5.949219 6.996094 6.121094 7.0625 Z M 6.121094 7.0625 "/>
<path style=" stroke:none;fill-rule:nonzero;fill:rgb(0%,0%,0%);fill-opacity:1;" d="M 4.472656 13.785156 C 4.09375 13.933594 3.808594 14.222656 3.667969 14.605469 C 3.613281 14.761719 3.605469 14.832031 3.613281 15.066406 C 3.625 15.296875 3.644531 15.371094 3.722656 15.535156 C 3.839844 15.777344 3.980469 15.941406 4.183594 16.082031 C 4.714844 16.433594 5.378906 16.355469 5.824219 15.902344 C 6.003906 15.714844 6.128906 15.472656 6.183594 15.214844 C 6.277344 14.671875 5.964844 14.089844 5.441406 13.839844 C 5.253906 13.746094 5.207031 13.738281 4.9375 13.730469 C 4.691406 13.722656 4.613281 13.730469 4.472656 13.785156 Z M 5.082031 14.761719 C 5.316406 14.949219 5.1875 15.328125 4.886719 15.328125 C 4.730469 15.328125 4.566406 15.175781 4.566406 15.035156 C 4.566406 14.917969 4.628906 14.777344 4.707031 14.734375 C 4.796875 14.683594 4.996094 14.691406 5.082031 14.761719 Z M 5.082031 14.761719 "/>
</g>
</svg>
